<svg
  width="32"
  height="32"
  viewBox="0 0 32 32"
  fill="none"
  xmlns="http://www.w3.org/2000/svg"
  role="img"
  aria-labelledby="smartfnb-favicon-title"
>
  <title id="smartfnb-favicon-title">SmartF&amp;B Logo</title>
  <rect width="32" height="32" rx="16" fill="#E8692A" />
  <path
    d="M11.5 26V16.85C10.65 16.6167 9.9375 16.15 9.3625 15.45C8.7875 14.75 8.5 13.9333 8.5 13V6H10.5V13H11.5V6H13.5V13H14.5V6H16.5V13C16.5 13.9333 16.2125 14.75 15.6375 15.45C15.0625 16.15 14.35 16.6167 13.5 16.85V26H11.5ZM21.5 26V18H18.5V11C18.5 9.61667 18.9875 8.4375 19.9625 7.4625C20.9375 6.4875 22.1167 6 23.5 6V26H21.5Z"
    fill="white"
  />
</svg>
